# xmcd
# 
# Track frame offsets:
#     150
#     31078
#     60574
#     89572
#     124283
#     158948
#     192629
# 
# Disc length: 3025
# 
# Revision: 0
# Processed by: cddbd v1.5.2PL0 Copyright (c) Steve Scherf et al.
# Submitted via: fre:ac v1.0.17
# 
DISCID=5e0bcf07
DTITLE=PrimeTime 5 Transition -  PrimeTime 5 Transition Testpack
DYEAR=0
DGENRE=
TTITLE0=Why to learn languages
TTITLE1=My Facebook
TTITLE2=Plans for the day
TTITLE3=The best geocaching apps
TTITLE4=An interview about TV
TTITLE5=Report about british danceclubs
TTITLE6=My first jobinterview
EXTD=
EXTT0=
EXTT1=
EXTT2=
EXTT3=
EXTT4=
EXTT5=
EXTT6=
PLAYORDER=
